<?xml version="1.0" encoding="utf-8"?>
<!-- Generator: Adobe Illustrator 15.1.0, SVG Export Plug-In . SVG Version: 6.00 Build 0)  -->
<!DOCTYPE svg PUBLIC "-//W3C//DTD SVG 1.1//EN" "http://www.w3.org/Graphics/SVG/1.1/DTD/svg11.dtd">
<svg version="1.1" id="Layer_1" xmlns="http://www.w3.org/2000/svg" xmlns:xlink="http://www.w3.org/1999/xlink" x="0px" y="0px"
	 width="79.445px" height="74.861px" viewBox="0 0 79.445 74.861" enable-background="new 0 0 79.445 74.861" xml:space="preserve">
<g>
	<g>
		<g>
			<path d="M5.361,21.113c0.242,10.343,6.222,21.534,17.667,21.972c2.903,0.111,2.892-4.389,0-4.5
				c-8.881-0.34-12.985-9.722-13.167-17.472C9.793,18.216,5.293,18.209,5.361,21.113L5.361,21.113z"/>
		</g>
	</g>
	<g>
		<g>
			<path d="M2.278,39.446c-0.402,12.347,12.378,14.155,21.464,9.88c2.624-1.234,0.338-5.113-2.271-3.885
				c-6.085,2.863-14.973,2.595-14.692-5.995C6.873,36.542,2.372,36.552,2.278,39.446L2.278,39.446z"/>
		</g>
	</g>
	<g>
		<g>
			<path d="M18.343,70.717c-0.234-7.667,3.205-17.447,12.064-18.285c2.863-0.271,2.889-4.773,0-4.5
				c-11.394,1.077-16.882,12.349-16.564,22.785C13.932,73.612,18.432,73.621,18.343,70.717L18.343,70.717z"/>
		</g>
	</g>
	<g>
		<g>
			<path d="M24.343,67.717c-0.234-7.667,3.205-17.447,12.064-18.285c2.863-0.271,2.889-4.773,0-4.5
				c-11.394,1.077-16.882,12.349-16.564,22.785C19.932,70.612,24.432,70.621,24.343,67.717L24.343,67.717z"/>
		</g>
	</g>
	<g>
		<g>
			<path d="M55.619,67.717c0.318-10.437-5.17-21.708-16.564-22.785c-2.889-0.273-2.863,4.229,0,4.5
				c8.859,0.838,12.298,10.617,12.064,18.285C51.03,70.621,55.531,70.612,55.619,67.717L55.619,67.717z"/>
		</g>
	</g>
	<g>
		<g>
			<path d="M72.58,21.113c-0.182,7.75-4.286,17.132-13.167,17.472c-2.893,0.111-2.903,4.611,0,4.5
				c11.444-0.438,17.425-11.628,17.667-21.972C77.148,18.209,72.647,18.216,72.58,21.113L72.58,21.113z"/>
		</g>
	</g>
	<g>
		<g>
			<path d="M58.959,3.529c-0.107,9.458-1.524,18.788-4.717,27.707c-0.979,2.739,3.369,3.908,4.34,1.196
				c3.319-9.276,4.766-19.074,4.877-28.903C63.493,0.626,58.993,0.629,58.959,3.529L58.959,3.529z"/>
		</g>
	</g>
	<g>
		<g>
			<path d="M68.597,70.717c0.318-10.437-5.17-21.708-16.564-22.785c-2.89-0.273-2.863,4.229,0,4.5
				c8.859,0.838,12.298,10.617,12.064,18.285C64.008,73.621,68.509,73.612,68.597,70.717L68.597,70.717z"/>
		</g>
	</g>
	<g>
		<ellipse cx="41.167" cy="40.807" rx="22.222" ry="17.083"/>
		<g>
			<g>
				<circle fill="#FFFFFF" cx="46.59" cy="32.585" r="5"/>
				<circle cx="46.314" cy="32.871" r="2.708"/>
			</g>
			<g>
				<circle fill="#FFFFFF" cx="31.8" cy="35.085" r="5"/>
				<circle cx="32.51" cy="35.204" r="2.708"/>
			</g>
		</g>
		<g>
			
				<ellipse transform="matrix(0.9891 -0.1472 0.1472 0.9891 -6.5247 6.902)" fill="#7F0044" cx="43.384" cy="47.547" rx="15.764" ry="7.347"/>
			
				<ellipse transform="matrix(0.9891 -0.1471 0.1471 0.9891 -6.948 7.3007)" fill="#DF0058" cx="45.876" cy="50.616" rx="9.75" ry="4.584"/>
		</g>
	</g>
</g>
</svg>
